<?xml version="1.0" encoding="UTF-8" standalone="no"?>
<svg
   xmlns:dc="http://purl.org/dc/elements/1.1/"
   xmlns:cc="http://creativecommons.org/ns#"
   xmlns:rdf="http://www.w3.org/1999/02/22-rdf-syntax-ns#"
   xmlns:svg="http://www.w3.org/2000/svg"
   xmlns="http://www.w3.org/2000/svg"
   xmlns:sodipodi="http://sodipodi.sourceforge.net/DTD/sodipodi-0.dtd"
   xmlns:inkscape="http://www.inkscape.org/namespaces/inkscape"
   version="1.1"
   viewBox="0 0 250 397"
   id="svg831"
   sodipodi:docname="deer.svg"
   width="250"
   height="397"
   inkscape:version="0.92.2 (5c3e80d, 2017-08-06)">
  <metadata
     id="metadata837">
    <rdf:RDF>
      <cc:Work
         rdf:about="">
        <dc:format>image/svg+xml</dc:format>
        <dc:type
           rdf:resource="http://purl.org/dc/dcmitype/StillImage" />
        <dc:title></dc:title>
      </cc:Work>
    </rdf:RDF>
  </metadata>
  <defs
     id="defs835" />
  <sodipodi:namedview
     pagecolor="#ffffff"
     bordercolor="#666666"
     borderopacity="1"
     objecttolerance="10"
     gridtolerance="10"
     guidetolerance="10"
     inkscape:pageopacity="0"
     inkscape:pageshadow="2"
     inkscape:window-width="1366"
     inkscape:window-height="745"
     id="namedview833"
     showgrid="false"
     inkscape:zoom="1.075"
     inkscape:cx="99.069767"
     inkscape:cy="240"
     inkscape:window-x="-8"
     inkscape:window-y="-8"
     inkscape:window-maximized="1"
     inkscape:current-layer="svg831" />
  <g
     transform="matrix(-0.99956229,0.02949106,0.02949106,0.99956229,465.79661,-51.35461)"
     id="g829"
     inkscape:export-xdpi="58.20734"
     inkscape:export-ydpi="58.20734"
     style="fill:#1b1b1b;fill-opacity:1">
    <path
       d="m 315.71,120.89 c -9.8263,0 -19.62,-1.5804 -27.779,2.808 -6.6063,3.5523 -19.114,3.2333 -26.772,3.2333 -3.6432,0 3.3726,8.6027 3.2661,11.512 -0.30294,8.3949 15.968,10.217 20.925,12.411 7.6496,3.3879 4.4575,8.8033 5.1075,15.746 1.7394,18.532 -4.8022,31.828 -11.059,48.366 -1.8899,4.9974 -5.5747,12.012 -5.1122,17.585 0.83514,10.06 -14.27,-1.5925 -18.686,-3.2164 -6.7475,-2.4818 -19.4,-5.9543 -26.532,-2.9095 -9.1509,3.905 -5.4313,12.469 -0.58984,18.063 9.2549,10.7 1.2352,19.107 3.9924,30.344 0.98547,4.0186 18.013,22.522 20.733,20.069 8.901,-8.0252 -3.2246,-12.024 -6.3681,-18.133 -1.4296,-2.7766 -3.4443,-30.018 -2.866,-29.977 2.6648,0.18849 8.6165,5.094 11.115,6.3627 7.4438,3.7746 14.793,7.8247 21.494,12.926 14.325,6.5947 29.099,12.624 44.271,16.758 20.779,5.6643 40.029,8.0397 59.927,17.711 11.36,5.5193 9.3474,17.585 17.892,26.579 8.5077,8.9531 20.793,14.617 30.612,21.867 7.9203,5.8479 14.906,15.115 19.329,24.032 5.1283,10.345 4.0179,24.18 5.7922,35.465 1.2283,7.8198 10.502,13.646 14.952,19.779 9.6436,13.281 8.2302,-9.0547 4.3048,-10.746 -7.3859,-3.185 -9.6504,-18.817 -10.064,-26.516 -0.66391,-12.331 4.0619,-22.01 -4.3811,-31.639 -15.762,-17.976 -28.752,-39.06 -16.671,-64.289 5.038,-10.521 -8.1423,-19.924 5.156,-22.652 6.0396,-1.2372 12.838,-0.002 17.085,-5.6401 5.3504,-7.1021 1.7048,-16.169 -3.1991,-22.319 -0.59443,-0.92072 -1.3508,-1.636 -2.2692,-2.1483 0.85352,0 -0.0902,12.254 -2.2692,13.82 -4.8878,3.5136 -12.519,9.5645 -18.739,9.7724 -5.3457,0.17639 -14.207,-6.0123 -17.737,-9.6999 -2.5907,-2.7065 -11.649,-3.6271 -15.299,-4.4173 -8.9311,-1.9308 -15.861,-3.6345 -24.487,-7.3075 -10.858,-4.6228 -21.57,-9.9898 -31.128,-17.148 -23.09,-17.29 -27.295,-47.276 -24.364,-75.431 0.63147,-6.0606 -1.9731,-15.557 1.3763,-20.734 0.79575,-1.23 4.4019,-0.87477 5.7875,-2.1531 1.765,-1.6287 5.6788,-7.7376 6.382,-10.227 2.8869,-10.205 -12.764,2.924 -10.506,2.7694 -3.4119,0.23678 3.8745,-21.758 4.2909,-22.628 0.84198,-1.7592 12.255,-22.838 5.3665,-22.599 -4.3209,0.14981 -2.1928,13.158 -7.3026,12.095 -5.5285,-1.1502 -13.49,-16.507 -11.075,-22.27 4.2423,-10.13 -4.2169,-12.339 -5.4406,-3.4967 -0.23593,1.7036 3.8838,14.195 -2.4404,12.327 -6.5323,-1.9308 -5.577,-30.907 -8.7414,-30.605 -5.5261,0.5292 -0.70783,26.185 -2.3571,29.423 -0.50192,0.98593 -8.5147,-8.4964 -9.026,-10.773 -2.2645,-10.053 -3.3031,-6.3119 -5.9887,0.08215 -3.5553,8.4626 23.8,23.37 28.734,26.366 3.9347,2.3875 7.1662,4.4488 8.5147,9.2238 1.1774,4.1685 2.6023,9.8787 -0.10873,13.801 -1.9291,2.7911 -7.0458,4.328 -7.0458,8.3781"
       id="path827"
       style="fill:#1b1b1b;fill-opacity:1;stroke-width:5"
       inkscape:connector-curvature="0" />
  </g>
</svg>
